<svg xmlns="http://www.w3.org/2000/svg" version="1.1" xmlns:xlink="http://www.w3.org/1999/xlink" xmlns:svgjs="http://svgjs.dev/svgjs" width="1000" height="1000" viewBox="0 0 1000 1000"><g transform="matrix(1,0,0,1,0,0)"><svg viewBox="0 0 280 280" data-background-color="#ffffff" preserveAspectRatio="xMidYMid meet" height="1000" width="1000" xmlns="http://www.w3.org/2000/svg" xmlns:xlink="http://www.w3.org/1999/xlink"><g id="tight-bounds" transform="matrix(1,0,0,1,0,0)"><svg viewBox="0 0 280 280" height="280" width="280"><g><svg viewBox="0 0 280 280" height="280" width="280"><g><svg viewBox="0 0 280 280" height="280" width="280"><g id="textblocktransform"><svg viewBox="0 0 280 280" height="280" width="280" id="textblock"><g><svg viewBox="0 0 280 280" height="280" width="280"><g transform="matrix(1,0,0,1,74.00336708925556,74.01950192687785)"><svg viewBox="0 0 131.99326582148888 131.9609961462443" height="131.9609961462443" width="131.99326582148888"><g><svg xmlns="http://www.w3.org/2000/svg" xmlns:xlink="http://www.w3.org/1999/xlink" version="1.1" x="0" y="0" viewBox="5 5 90 89.97799682617188" enable-background="new 0 0 100 100" xml:space="preserve" height="131.9609961462443" width="131.99326582148888" class="icon-o-0" data-fill-palette-color="accent" id="o-0"><path d="M83.693 37.661c-3.631-3.628-7.832-6.614-12.496-8.884-2.271-4.658-5.26-8.854-8.895-12.483C55.014 9.011 46.142 5 37.323 5c-7.171 0-13.557 2.702-18.287 7.668l-0.008-0.007C9.981 21.697 5 33.732 5 46.548c0 12.921 5.051 25.083 14.224 34.245 9.464 9.454 21.883 14.185 34.278 14.185 12.302 0 24.579-4.66 33.917-13.989l-0.103-0.103c4.476-4.271 7.154-9.945 7.612-16.282C95.603 55.287 91.507 45.466 83.693 37.661zM22.757 77.256C14.53 69.038 10 58.132 10 46.548c0-3.513 0.423-6.959 1.234-10.284 0.584 10.347 5.186 21.203 13.333 29.344 1.655 1.651 3.427 3.161 5.271 4.492 1.329 1.839 2.841 3.608 4.498 5.264 7.904 7.896 18.788 12.804 29.48 13.374C49.596 92.214 33.896 88.382 22.757 77.256zM89.942 64.243c-0.435 6.011-3.201 11.079-8.002 14.658-4.294 3.201-9.84 4.894-16.037 4.894-10.052 0-20.531-4.475-28.033-11.969-1.562-1.56-2.975-3.229-4.2-4.963l-0.248-0.352-0.352-0.247c-1.738-1.228-3.411-2.64-4.97-4.195C15.48 49.461 12.304 29.715 21.02 18.052 24.898 12.86 30.689 10 37.323 10c7.376 0 15.192 3.583 21.446 9.831 3.431 3.426 6.218 7.422 8.284 11.875l0.386 0.831 0.831 0.385c4.461 2.066 8.461 4.851 11.89 8.276C86.945 47.977 90.511 56.376 89.942 64.243z" fill="#edbbba" data-fill-palette-color="accent"></path><path d="M50.636 29.163c-4.773 0-9.217 1.812-12.51 5.101-7.198 7.19-3.901 21.266-1.178 26.955l0.381 0.797 0.797 0.38c3.071 1.467 8.709 3.179 14.491 3.179 5.316 0 9.634-1.506 12.485-4.354 3.439-3.436 5.251-8.076 5.1-13.066-0.15-4.933-2.206-9.621-5.789-13.201C60.675 31.219 55.781 29.163 50.636 29.163zM41.659 37.801c2.35-2.347 5.537-3.639 8.977-3.639 0.54 0 1.075 0.039 1.606 0.1-2.759 1.238-5.604 3.208-8.255 5.856-2.392 2.388-4.058 5.121-5.205 7.827C38.591 44.034 39.276 40.182 41.659 37.801zM61.569 57.683c-2.393 2.39-6.188 2.892-8.952 2.892-3.989 0-8.165-1.005-11.043-2.14-0.032-3.249 1.109-9.947 5.946-14.778 5.303-5.298 11.425-7.094 13.359-5.166 2.678 2.675 4.213 6.161 4.324 9.815C65.313 51.901 64.022 55.231 61.569 57.683z" fill="#edbbba" data-fill-palette-color="accent"></path></svg></g></svg></g><g><path d="M140.227 28.84c-1.503 0.019-2.953-0.26-4.35-0.838-1.398-0.578-2.59-1.384-3.577-2.417-0.993-1.027-1.657-2.187-1.991-3.48v0l1.975-0.86c0.438 1.61 1.398 2.918 2.881 3.926 1.483 1.014 3.161 1.509 5.034 1.484v0c1.271-0.016 2.419-0.309 3.445-0.878 1.026-0.569 1.83-1.338 2.413-2.305 0.577-0.974 0.858-2.044 0.843-3.209v0c-0.012-0.927-0.217-1.725-0.617-2.395-0.406-0.663-1.089-1.3-2.05-1.91-0.961-0.61-2.334-1.274-4.117-1.993v0c-2.602-1.052-4.453-2.134-5.554-3.246-1.1-1.105-1.66-2.452-1.68-4.04v0c-0.016-1.244 0.287-2.371 0.91-3.379 0.623-1.014 1.493-1.813 2.611-2.397 1.118-0.584 2.375-0.885 3.772-0.902v0c1.218-0.016 2.319 0.175 3.304 0.573 0.985 0.398 1.76 0.957 2.326 1.678 0.559 0.721 0.844 1.528 0.855 2.423v0c0.014 1.059-0.362 1.938-1.128 2.636-0.772 0.698-1.729 0.989-2.869 0.871v0l0.133-2.067c0.424 0.048 0.794-0.07 1.107-0.352 0.314-0.282 0.468-0.648 0.463-1.099v0c-0.009-0.688-0.427-1.276-1.254-1.761-0.827-0.493-1.784-0.732-2.869-0.718v0c-0.894 0.011-1.729 0.214-2.505 0.608-0.776 0.394-1.385 0.921-1.827 1.583-0.442 0.668-0.658 1.386-0.648 2.153v0c0.014 1.112 0.497 2.092 1.448 2.941 0.951 0.842 2.541 1.725 4.771 2.65v0c2.796 1.156 4.787 2.355 5.975 3.598 1.194 1.236 1.803 2.728 1.825 4.475v0c0.02 1.562-0.372 3.001-1.176 4.315-0.804 1.321-1.9 2.368-3.286 3.141-1.394 0.773-2.925 1.17-4.593 1.191z" fill="#edbbba" data-fill-palette-color="primary"></path><path d="M139.945 279.999c-1.516-0.02-2.968-0.336-4.358-0.95-1.389-0.62-2.57-1.46-3.542-2.519-0.973-1.065-1.61-2.252-1.911-3.56v0l2.007-0.818c0.403 1.627 1.339 2.97 2.808 4.029 1.463 1.058 3.137 1.6 5.024 1.624v0c1.284 0.017 2.446-0.246 3.486-0.79 1.047-0.549 1.877-1.307 2.492-2.271 0.608-0.959 0.92-2.024 0.935-3.196v0c0.012-0.933-0.176-1.744-0.564-2.43-0.388-0.68-1.059-1.341-2.01-1.983-0.952-0.635-2.317-1.337-4.094-2.108v0c-2.594-1.126-4.43-2.262-5.508-3.408-1.078-1.146-1.606-2.517-1.585-4.112v0c0.016-1.251 0.352-2.379 1.007-3.384 0.649-1.005 1.543-1.788 2.682-2.348 1.139-0.555 2.417-0.823 3.833-0.805v0c1.225 0.016 2.327 0.235 3.309 0.658 0.974 0.43 1.738 1.012 2.291 1.748 0.547 0.742 0.814 1.566 0.802 2.473v0c-0.014 1.066-0.416 1.938-1.205 2.616-0.797 0.685-1.767 0.954-2.91 0.807v0l0.185-2.083c0.423 0.058 0.798-0.049 1.127-0.323 0.321-0.274 0.485-0.636 0.49-1.086v0c0.009-0.695-0.397-1.299-1.218-1.814-0.814-0.52-1.767-0.788-2.859-0.801v0c-0.907-0.012-1.757 0.169-2.55 0.543-0.786 0.38-1.412 0.899-1.877 1.555-0.459 0.663-0.693 1.381-0.703 2.156v0c-0.014 1.119 0.446 2.114 1.382 2.987 0.929 0.879 2.506 1.813 4.73 2.802v0c2.785 1.234 4.761 2.491 5.93 3.771 1.169 1.28 1.741 2.8 1.719 4.56v0c-0.02 1.569-0.453 3.007-1.297 4.314-0.844 1.307-1.977 2.331-3.397 3.074-1.42 0.736-2.97 1.094-4.651 1.072z" fill="#edbbba" data-fill-palette-color="primary"></path><path d="M4.181 143.438c0-5.908 4.789-10.697 10.697-10.697 5.908 0 10.697 4.789 10.697 10.697 0 5.908-4.789 10.697-10.697 10.697-5.908 0-10.697-4.789-10.697-10.697z" fill="#edbbba" data-fill-palette-color="primary"></path><path d="M254.425 143.438c0-5.908 4.789-10.697 10.697-10.697 5.908 0 10.697 4.789 10.697 10.697 0 5.908-4.789 10.697-10.697 10.697-5.908 0-10.697-4.789-10.697-10.697z" fill="#edbbba" data-fill-palette-color="primary"></path></g></svg></g></svg></g></svg></g></svg></g><defs></defs></svg><rect width="280" height="280" fill="none" stroke="none" visibility="hidden"></rect></g></svg></g></svg>